<?xml version="1.0" encoding="utf-8"?>
<!-- Generator: Adobe Illustrator 23.0.1, SVG Export Plug-In . SVG Version: 6.00 Build 0)  -->
<svg version="1.1" id="Layer_1" xmlns="http://www.w3.org/2000/svg" xmlns:xlink="http://www.w3.org/1999/xlink" x="0px" y="0px"
	 viewBox="0 0 315.47 300.47" style="enable-background:new 0 0 315.47 300.47;" xml:space="preserve">
<style type="text/css">
	.st0{fill:#0E1D39;}
	.st1{fill:#17294B;}
	.st2{fill:none;stroke:#FAB534;stroke-width:5;stroke-miterlimit:10;}
	.st3{fill:none;stroke:#FAB534;stroke-width:5;stroke-linecap:round;stroke-linejoin:round;stroke-miterlimit:10;}
	.st4{fill:none;stroke:#505CA0;stroke-width:5;stroke-linecap:round;stroke-miterlimit:10;}
	.st5{fill:#FAB534;}
	.st6{fill:#F4B92E;}
	.st7{fill:#FEE14C;}
	.st8{fill:#FBF4B1;}
	.st9{fill:#FFD26F;}
	.st10{fill:#FAEF72;}
	.st11{fill:#FBF195;}
	.st12{fill:#FFFFFF;}
	.st13{clip-path:url(#SVGID_2_);}
	.st14{clip-path:url(#SVGID_4_);}
	.st15{clip-path:url(#SVGID_6_);}
	.st16{clip-path:url(#SVGID_8_);}
	.st17{fill:url(#XMLID_2_);}
	.st18{fill:url(#gold_1_);}
	.st19{fill:url(#gold_2_);}
	.st20{fill:#E5E5E5;}
	.st21{fill:#505CA0;}
</style>
<g>
	<path class="st12" d="M206.91,89.81c-33.27,0-60.25,26.97-60.25,60.25c0,1.77,0.09,3.51,0.24,5.24c-0.78-3.86-1.2-7.84-1.2-11.93
		c0-11.71,3.34-22.65,9.13-31.9c-11.05-13.24-27.67-21.66-46.27-21.66c-33.27,0-60.24,26.97-60.24,60.24
		c0,33.27,26.97,60.25,60.24,60.25c20.31,0,38.26-10.05,49.18-25.45c10.91,15.39,28.86,25.45,49.16,25.45
		c33.27,0,60.25-26.97,60.25-60.25C267.15,116.78,240.18,89.81,206.91,89.81z"/>
	<g>
		<g>
			<g>
				<path class="st5" d="M192.21,69.77c-1.83,3.06-3.14,5.4-4.59,7.64c-1.35,2.08-2.86,4.06-4.73,6.69
					c26.9-3.22,52.55,0.49,79.07,6.07c-11.82-27.76-30.7-48.6-52.35-68.29c-1.48,5.91-2.76,11.02-4.14,16.49
					c-44.38-15.9-85.18-10.46-122.16,18.5C69.34,67.83,58.68,81.53,51.71,98.13C93.51,63.94,139.94,54.51,192.21,69.77z"/>
			</g>
		</g>
	</g>
	<path class="st12" d="M125.28,230.7c1.83-3.06,3.14-5.4,4.59-7.64c1.35-2.08,2.86-4.06,4.73-6.69c-26.9,3.22-52.55-0.49-79.07-6.07
		c11.82,27.76,30.7,48.6,52.35,68.29c1.48-5.91,2.76-11.02,4.14-16.49c44.38,15.9,85.18,10.46,122.16-18.5
		c13.97-10.94,24.64-24.65,31.61-41.24C223.97,236.53,177.55,245.96,125.28,230.7z"/>
	<path class="st5" d="M267.15,150.05c0,33.28-26.97,60.25-60.24,60.25c-17.29,0-32.87-7.29-43.84-18.95
		c-0.38-0.4-0.76-0.81-1.13-1.22c-0.45-0.5-0.89-1.01-1.31-1.52c-0.26-0.3-0.51-0.61-0.76-0.93c-0.37-0.46-0.73-0.92-1.09-1.39
		c-0.35-0.47-0.7-0.95-1.04-1.43c0,0,0,0.01-0.01,0.01c-6.63-9.26-10.28-19.9-11.04-30.68c0.07,0.37,0.14,0.73,0.21,1.1
		c-0.15-1.72-0.24-3.47-0.24-5.24c0-33.27,26.97-60.24,60.25-60.24c18.71,0,35.44,8.53,46.49,21.92c0.3,0.37,0.61,0.75,0.9,1.13
		c0.17,0.2,0.32,0.41,0.48,0.62c0.15,0.2,0.31,0.4,0.46,0.61c0.28,0.37,0.56,0.76,0.83,1.14
		C263.05,125.06,267.15,137.08,267.15,150.05z"/>
	<g>
		<path class="st12" d="M200.1,165.63c-0.35,2.3-0.7,4.6-1.04,6.87c0.17,0.14,0.25,0.27,0.33,0.27c3.49-0.01,7.04,0.4,10.44-0.16
			c4.51-0.74,7.31-4.28,7.94-8.92c0.14-1.03,0.15-2.07,0.17-3.11c0.09-3.61-1.89-5.7-5.87-6.1c-3.04-0.3-6.12-0.22-9.18-0.32
			c-0.57-0.02-1.15-0.07-2.06-0.12c0.73-1.11,1.26-1.97,1.85-2.8c1.85-2.58,3.64-5.2,5.62-7.67c0.61-0.76,1.71-1.22,2.67-1.59
			c0.9-0.34,1.92-0.51,2.89-0.54c5.56-0.17,9.04-8.57,6.52-13.49c-0.54-1.04-1.97-2-3.15-2.26c-2.21-0.49-4.55-0.44-6.83-0.61
			c-0.52-0.04-1.05-0.07-1.76-0.11c0.21-0.54,0.29-0.9,0.48-1.19c2.05-3.04,4.08-6.08,6.2-9.07c0.37-0.53,1.07-1.17,1.62-1.18
			c4.32-0.05,8.66-0.17,12.85,1.12c4.01,1.24,6.06,4.39,6.86,8.13c1.57,7.29,0.42,14.19-4.49,20.05c-1.26,1.51-3.1,2.53-4.71,3.74
			c-0.5,0.38-1.11,0.62-1.94,1.07c0.66,0.46,1.07,0.77,1.51,1.05c4.24,2.63,6.39,6.45,6.53,11.43c0.25,8.86-2.69,16.3-9.75,21.89
			c-3.31,2.62-7.29,3.67-11.35,3.8c-9.29,0.3-18.59,0.26-27.89,0.35c-0.26,0-0.51-0.11-1.31-0.3c5.54-7,10.9-13.76,16.26-20.52
			C199.72,165.46,199.91,165.55,200.1,165.63z"/>
		<path class="st12" d="M172.32,195.86c2.7-6.18,5.37-12.51,8-19c1.47-3.62,2.9-7.22,4.29-10.79c-3.78,0.54-7.56,1.08-11.35,1.62
			c4.19-5.99,8.11-11.58,12.03-17.18c-0.08-0.15-0.16-0.3-0.24-0.45c-3.17,0.48-6.34,0.95-9.91,1.49c0.3-0.9,0.41-1.46,0.67-1.94
			c4.29-8.11,8.59-16.21,12.89-24.32c1.18-2.22,2.46-4.39,3.47-6.69c1-2.28,2.67-3.29,5.05-3.57c4.39-0.52,8.77-1.15,13.16-1.7
			c0.49-0.06,1.01,0.04,1.51,0.07c-0.13,0.5-0.14,1.08-0.41,1.5c-2.82,4.42-5.68,8.82-8.54,13.22c-1.94,2.98-3.9,5.94-5.83,8.92
			c-0.16,0.24-0.16,0.59-0.33,1.24c4.49-0.58,8.76-1.13,13.03-1.69c0.1,0.15,0.21,0.3,0.31,0.45c-4.57,6.38-9.14,12.76-14.01,19.55
			c2.52,0.12,4.53,0.21,6.55,0.31C202.46,158.41,174.39,194.71,172.32,195.86z"/>
	</g>
	<g>
		<path class="st0" d="M110.2,103.36c0.28,0.86,0.74,1.7,0.79,2.57c0.12,2.12,0.14,4.25,0.01,6.37c-0.09,1.48,0.52,1.9,1.87,2.13
			c4.7,0.8,9.04,2.53,12.86,5.46c2.48,1.9,2.57,2.21,1.09,4.87c-1.03,1.85-2.03,3.73-3.09,5.57c-1.01,1.76-1.86,1.95-3.51,0.72
			c-3.57-2.67-7.45-4.61-11.92-5.1c-3.74-0.41-7.3,0.1-10.31,2.59c-3.38,2.79-3.62,7.6-0.1,10.13c2.97,2.14,6.42,3.63,9.75,5.21
			c4.06,1.93,8.35,3.41,12.31,5.53c13.23,7.07,11.27,22.66,3.89,29.94c-3.16,3.12-6.85,5.2-11.17,6.12
			c-1.33,0.28-1.72,0.84-1.66,2.13c0.09,2.05,0.1,4.12-0.02,6.17c-0.06,0.94-0.51,1.86-0.78,2.78c-2.92,0-5.84,0-8.76,0
			c-0.32-0.82-0.85-1.63-0.9-2.47c-0.14-2.05-0.15-4.12-0.02-6.16c0.1-1.57-0.42-2.16-2-2.45c-5.86-1.06-11.04-3.62-15.59-7.45
			c-2.53-2.13-2.55-2.58-0.57-5.18c1.25-1.63,2.49-3.27,3.75-4.9c1.3-1.68,1.96-1.78,3.56-0.43c4.04,3.41,8.57,5.71,13.86,6.45
			c3.2,0.45,6.22-0.01,8.98-1.71c4.9-3.03,5.08-9.22,0.18-12.23c-2.86-1.76-6.04-2.97-9.1-4.4c-3.77-1.76-7.7-3.24-11.32-5.27
			c-7.39-4.15-11.22-10.5-9.95-19.11c1.22-8.28,6.74-13.08,14.21-15.88c3.95-1.48,4-1.36,3.98-5.56c-0.01-1.39-0.11-2.8,0.04-4.17
			c0.08-0.78,0.59-1.51,0.91-2.27C104.36,103.36,107.28,103.36,110.2,103.36z"/>
	</g>
</g>
</svg>
