<?xml version="1.0" encoding="utf-8"?>
<!-- Generator: Adobe Illustrator 23.0.1, SVG Export Plug-In . SVG Version: 6.00 Build 0)  -->
<svg version="1.1" id="Layer_1" xmlns="http://www.w3.org/2000/svg" xmlns:xlink="http://www.w3.org/1999/xlink" x="0px" y="0px"
	 viewBox="0 0 799 292" style="enable-background:new 0 0 799 292;" xml:space="preserve">
<style type="text/css">
	.st0{fill:#0E1D39;}
	.st1{fill:#17294B;}
	.st2{fill:none;stroke:#FAB534;stroke-width:5;stroke-miterlimit:10;}
	.st3{fill:none;stroke:#FAB534;stroke-width:5;stroke-linecap:round;stroke-linejoin:round;stroke-miterlimit:10;}
	.st4{fill:none;stroke:#505CA0;stroke-width:5;stroke-linecap:round;stroke-miterlimit:10;}
	.st5{fill:#FAB534;}
	.st6{fill:#F4B92E;}
	.st7{fill:#FEE14C;}
	.st8{fill:#FBF4B1;}
	.st9{fill:#FFD26F;}
	.st10{fill:#FAEF72;}
	.st11{fill:#FBF195;}
	.st12{fill:#FFFFFF;}
	.st13{clip-path:url(#SVGID_2_);}
	.st14{clip-path:url(#SVGID_4_);}
	.st15{clip-path:url(#SVGID_6_);}
	.st16{clip-path:url(#SVGID_8_);}
	.st17{fill:url(#XMLID_2_);}
	.st18{fill:url(#gold_1_);}
	.st19{fill:url(#gold_2_);}
	.st20{fill:#E5E5E5;}
	.st21{fill:#505CA0;}
</style>
<g>
	<g>
		<path class="st5" d="M368.94,92.42c-3.42-4.43-8.01-7.3-13.79-8.6c5.03-1.4,9.05-4.03,12.07-7.9c3.02-3.87,4.53-8.69,4.52-14.47
			c-0.02-8.11-2.9-14.4-8.64-18.88c-5.74-4.47-13.64-6.71-23.71-6.71h-47.26l0.2,98.57h48.8c10.44,0,18.54-2.38,24.31-7.13
			c5.77-4.75,8.65-11.33,8.63-19.71C374.06,101.9,372.35,96.84,368.94,92.42z M319.58,57.67h13.84c6.9,0,10.35,2.94,10.37,8.81
			c0.01,5.69-3.44,8.53-10.33,8.53h-13.84L319.58,57.67z M335.63,112.34h-15.94l-0.03-17.9h15.79c3.36,0,5.95,0.8,7.77,2.38
			c1.82,1.59,2.73,3.87,2.74,6.85C345.97,109.45,342.53,112.34,335.63,112.34z"/>
		<path class="st5" d="M413.34,30.97h-27.41l0.22,103.46h27.4L413.34,30.97z"/>
		<path class="st5" d="M501.44,73.89c-3.6-6.06-8.51-10.72-14.71-13.98c-6.21-3.26-13.22-4.89-21.05-4.89s-14.84,1.63-21.03,4.89
			c-6.2,3.26-11.08,7.92-14.66,13.98c-3.57,6.06-5.35,13.14-5.33,21.25c0.01,8.21,1.8,15.34,5.35,21.39
			c3.56,6.06,8.43,10.72,14.64,13.99c6.21,3.26,13.22,4.89,21.05,4.89c7.83,0,14.87-1.63,21.1-4.89
			c6.24-3.27,11.15-7.95,14.73-14.06c3.57-6.1,5.35-13.21,5.34-21.32C506.85,87.03,505.04,79.95,501.44,73.89z M475.22,107.38
			c-2.56,2.84-5.75,4.26-9.57,4.26s-6.94-1.4-9.37-4.19c-2.43-2.8-3.65-6.9-3.66-12.31c-0.01-5.31,1.24-9.36,3.75-12.16
			c2.51-2.8,5.63-4.2,9.36-4.2c3.72,0,6.87,1.4,9.44,4.2c2.57,2.8,3.86,6.85,3.87,12.16C479.05,100.46,477.78,104.53,475.22,107.38z
			"/>
		<path class="st5" d="M562.53,104.37c-1.58,5.13-4.83,7.69-9.77,7.69c-3.45,0-6.18-1.44-8.19-4.33c-2.01-2.89-3.02-7.09-3.03-12.59
			s0.98-9.67,2.98-12.51c1.99-2.84,4.72-4.26,8.17-4.26c4.84,0,8.11,2.56,9.8,7.68h29.08c-1.98-9.78-6.37-17.4-13.19-22.85
			c-6.81-5.46-15.21-8.18-25.18-8.18c-7.74,0-14.61,1.63-20.61,4.89c-6.01,3.26-10.68,7.92-14.03,13.98
			c-3.34,6.06-5,13.14-4.98,21.25c0.01,8.21,1.7,15.34,5.07,21.39c3.37,6.06,8.06,10.72,14.08,13.99c6.02,3.26,12.9,4.89,20.64,4.89
			c9.97,0,18.35-2.75,25.14-8.25c6.8-5.5,11.16-13.09,13.1-22.79H562.53z"/>
		<path class="st5" d="M685.49,134.43l-31.54-39.01l30.82-39.43h-32.86L630.3,86.75l-0.11-55.78h-27.41L603,134.43h27.4l-0.07-32.16
			l21.74,32.16H685.49z"/>
		<path class="st12" d="M366.08,164.66c-2.81-4.94-6.99-8.81-12.54-11.6c-5.55-2.8-12.29-4.2-20.21-4.2h-40.97l0.21,98.57h27.4
			l-0.07-33.28h13.56c8.02,0,14.8-1.46,20.34-4.4s9.68-6.85,12.42-11.74c2.74-4.9,4.1-10.33,4.09-16.29
			C370.29,175.29,368.88,169.6,366.08,164.66z M330.76,192.34h-10.9l-0.05-21.39h10.91c7.73,0,11.61,3.59,11.62,10.77
			C342.36,188.8,338.5,192.34,330.76,192.34z"/>
		<path class="st12" d="M439.71,208.98c7.08-2.14,12.45-5.75,16.13-10.83c3.67-5.08,5.5-10.98,5.48-17.69
			c-0.01-5.96-1.42-11.35-4.23-16.15c-2.8-4.8-6.96-8.57-12.46-11.32c-5.51-2.75-12.22-4.13-20.14-4.13h-43.21l0.21,98.57h27.4
			l-0.07-36.35h2.93l19.65,36.35h30.62L439.71,208.98z M430.72,189.69c-1.86,1.77-4.65,2.65-8.38,2.65h-13.56l-0.05-20.55h13.57
			c3.63,0,6.41,0.91,8.32,2.73c1.91,1.81,2.88,4.31,2.88,7.48C433.51,185.35,432.58,187.92,430.72,189.69z"/>
		<path class="st12" d="M564.77,171.72c-4.49-7.69-10.59-13.68-18.29-17.97c-7.7-4.28-16.21-6.43-25.53-6.43
			c-9.22,0-17.7,2.15-25.43,6.43c-7.73,4.29-13.84,10.28-18.35,17.97c-4.5,7.69-6.75,16.38-6.73,26.08
			c0.02,9.69,2.3,18.38,6.84,26.07s10.68,13.7,18.42,18.04c7.75,4.33,16.23,6.5,25.46,6.5s17.71-2.17,25.43-6.5
			c7.73-4.34,13.82-10.35,18.28-18.04c4.46-7.69,6.68-16.38,6.66-26.07C571.51,188.1,569.25,179.41,564.77,171.72z M537.66,216.11
			c-4.04,4.57-9.56,6.85-16.55,6.85c-7.09,0-12.64-2.26-16.65-6.78c-4.02-4.52-6.04-10.65-6.05-18.38
			c-0.02-7.83,1.97-14.01,5.97-18.53s9.54-6.78,16.63-6.78c6.99,0,12.51,2.26,16.58,6.78c4.06,4.52,6.1,10.7,6.12,18.53
			C543.72,205.44,541.71,211.55,537.66,216.11z"/>
		<path class="st5" d="M646.95,225.48h-35.66l-0.03-17.76h31.45l-0.04-20.83h-31.46l-0.03-16.08h35.65l-0.04-21.95h-63.06l0.2,98.57
			h63.06L646.95,225.48z"/>
	</g>
</g>
<path class="st12" d="M197.62,87.4c-33.27,0-60.25,26.97-60.25,60.25c0,1.77,0.09,3.51,0.24,5.24c-0.78-3.86-1.2-7.84-1.2-11.93
	c0-11.71,3.34-22.65,9.13-31.9C134.5,95.82,117.88,87.4,99.28,87.4c-33.27,0-60.24,26.97-60.24,60.24
	c0,33.27,26.97,60.25,60.24,60.25c20.31,0,38.26-10.05,49.18-25.45c10.91,15.39,28.86,25.45,49.16,25.45
	c33.27,0,60.25-26.97,60.25-60.25C257.87,114.37,230.9,87.4,197.62,87.4z"/>
<g>
	<g>
		<g>
			<path class="st5" d="M182.93,67.36c-1.83,3.06-3.14,5.4-4.59,7.64c-1.35,2.08-2.86,4.06-4.73,6.69
				c26.9-3.22,52.55,0.49,79.07,6.07c-11.82-27.76-30.7-48.6-52.35-68.29c-1.48,5.91-2.76,11.02-4.14,16.49
				c-44.38-15.9-85.18-10.46-122.16,18.5C60.06,65.42,49.4,79.12,42.42,95.72C84.23,61.52,130.66,52.09,182.93,67.36z"/>
		</g>
	</g>
</g>
<path class="st12" d="M115.99,228.28c1.83-3.06,3.14-5.4,4.59-7.64c1.35-2.08,2.86-4.06,4.73-6.69c-26.9,3.22-52.55-0.49-79.07-6.07
	c11.82,27.76,30.7,48.6,52.35,68.29c1.48-5.91,2.76-11.02,4.14-16.49c44.38,15.9,85.18,10.46,122.16-18.5
	c13.97-10.94,24.64-24.65,31.61-41.24C214.69,234.12,168.26,243.55,115.99,228.28z"/>
<path class="st5" d="M257.87,147.64c0,33.28-26.97,60.25-60.24,60.25c-17.29,0-32.87-7.29-43.84-18.95
	c-0.38-0.4-0.76-0.81-1.13-1.22c-0.45-0.5-0.89-1.01-1.31-1.52c-0.26-0.3-0.51-0.61-0.76-0.93c-0.37-0.46-0.73-0.92-1.09-1.39
	c-0.35-0.47-0.7-0.95-1.04-1.43c0,0,0,0.01-0.01,0.01c-6.63-9.26-10.28-19.9-11.04-30.68c0.07,0.37,0.14,0.73,0.21,1.1
	c-0.15-1.72-0.24-3.47-0.24-5.24c0-33.27,26.97-60.24,60.25-60.24c18.71,0,35.44,8.53,46.49,21.92c0.3,0.37,0.61,0.75,0.9,1.13
	c0.17,0.2,0.32,0.41,0.48,0.62c0.15,0.2,0.31,0.4,0.46,0.61c0.28,0.37,0.56,0.76,0.83,1.14
	C253.77,122.65,257.87,134.67,257.87,147.64z"/>
<g>
	<path class="st12" d="M190.82,163.22c-0.35,2.3-0.7,4.6-1.04,6.87c0.17,0.14,0.25,0.27,0.33,0.27c3.49-0.01,7.04,0.4,10.44-0.16
		c4.51-0.74,7.31-4.28,7.94-8.92c0.14-1.03,0.15-2.07,0.17-3.11c0.09-3.61-1.89-5.7-5.87-6.1c-3.04-0.3-6.12-0.22-9.18-0.32
		c-0.57-0.02-1.15-0.07-2.06-0.12c0.73-1.11,1.26-1.97,1.85-2.8c1.85-2.58,3.64-5.2,5.62-7.67c0.61-0.76,1.71-1.22,2.67-1.59
		c0.9-0.34,1.92-0.51,2.89-0.54c5.56-0.17,9.04-8.57,6.52-13.49c-0.54-1.04-1.97-2-3.15-2.26c-2.21-0.49-4.55-0.44-6.83-0.61
		c-0.52-0.04-1.05-0.07-1.76-0.11c0.21-0.54,0.29-0.9,0.48-1.19c2.05-3.04,4.08-6.08,6.2-9.07c0.37-0.53,1.07-1.17,1.62-1.18
		c4.32-0.05,8.66-0.17,12.85,1.12c4.01,1.24,6.06,4.39,6.86,8.13c1.57,7.29,0.42,14.19-4.49,20.05c-1.26,1.51-3.1,2.53-4.71,3.74
		c-0.5,0.38-1.11,0.62-1.94,1.07c0.66,0.46,1.07,0.77,1.51,1.05c4.24,2.63,6.39,6.45,6.53,11.43c0.25,8.86-2.69,16.3-9.75,21.89
		c-3.31,2.62-7.29,3.67-11.35,3.8c-9.29,0.3-18.59,0.26-27.89,0.35c-0.26,0-0.51-0.11-1.31-0.3c5.54-7,10.9-13.76,16.26-20.52
		C190.43,163.05,190.63,163.13,190.82,163.22z"/>
	<path class="st12" d="M163.04,193.45c2.7-6.18,5.37-12.51,8-19c1.47-3.62,2.9-7.22,4.29-10.79c-3.78,0.54-7.56,1.08-11.35,1.62
		c4.19-5.99,8.11-11.58,12.03-17.18c-0.08-0.15-0.16-0.3-0.24-0.45c-3.17,0.48-6.34,0.95-9.91,1.49c0.3-0.9,0.41-1.46,0.67-1.94
		c4.29-8.11,8.59-16.21,12.89-24.32c1.18-2.22,2.46-4.39,3.47-6.69c1-2.28,2.67-3.29,5.05-3.57c4.39-0.52,8.77-1.15,13.16-1.7
		c0.49-0.06,1.01,0.04,1.51,0.07c-0.13,0.5-0.14,1.08-0.41,1.5c-2.82,4.42-5.68,8.82-8.54,13.22c-1.94,2.98-3.9,5.94-5.83,8.92
		c-0.16,0.24-0.16,0.59-0.33,1.24c4.49-0.58,8.76-1.13,13.03-1.69c0.1,0.15,0.21,0.3,0.31,0.45c-4.57,6.38-9.14,12.76-14.01,19.55
		c2.52,0.12,4.53,0.21,6.55,0.31C193.18,156,165.11,192.3,163.04,193.45z"/>
</g>
<g>
	<path class="st0" d="M100.91,100.95c0.28,0.86,0.74,1.7,0.79,2.57c0.12,2.12,0.14,4.25,0.01,6.37c-0.09,1.48,0.52,1.9,1.87,2.13
		c4.7,0.8,9.04,2.53,12.86,5.46c2.48,1.9,2.57,2.21,1.09,4.87c-1.03,1.85-2.03,3.73-3.09,5.57c-1.01,1.76-1.86,1.95-3.51,0.72
		c-3.57-2.67-7.45-4.61-11.92-5.1c-3.74-0.41-7.3,0.1-10.31,2.59c-3.38,2.79-3.62,7.6-0.1,10.13c2.97,2.14,6.42,3.63,9.75,5.21
		c4.06,1.93,8.35,3.41,12.31,5.53c13.23,7.07,11.27,22.66,3.89,29.94c-3.16,3.12-6.85,5.2-11.17,6.12
		c-1.33,0.28-1.72,0.84-1.66,2.13c0.09,2.05,0.1,4.12-0.02,6.17c-0.06,0.94-0.51,1.86-0.78,2.78c-2.92,0-5.84,0-8.76,0
		c-0.32-0.82-0.85-1.63-0.9-2.47c-0.14-2.05-0.15-4.12-0.02-6.16c0.1-1.57-0.42-2.16-2-2.45c-5.86-1.06-11.04-3.62-15.59-7.45
		c-2.53-2.13-2.55-2.58-0.57-5.18c1.25-1.63,2.49-3.27,3.75-4.9c1.3-1.68,1.96-1.78,3.56-0.43c4.04,3.41,8.57,5.71,13.86,6.45
		c3.2,0.45,6.22-0.01,8.98-1.71c4.9-3.03,5.08-9.22,0.18-12.23c-2.86-1.76-6.04-2.97-9.1-4.4c-3.77-1.76-7.7-3.24-11.32-5.27
		c-7.39-4.15-11.22-10.5-9.95-19.11c1.22-8.28,6.74-13.08,14.21-15.88c3.95-1.48,4-1.36,3.98-5.56c-0.01-1.39-0.11-2.8,0.04-4.17
		c0.08-0.78,0.59-1.51,0.91-2.27C95.07,100.95,97.99,100.95,100.91,100.95z"/>
</g>
<polygon class="st12" points="754.51,247.43 754.06,247.43 723.85,203.36 723.96,203.2 "/>
<path class="st5" d="M686.49,148.86H654.2l33.23,48.1l-31.91,50.47h28.4L703,219.61l15.99-23.34L686.49,148.86z"/>
<polygon class="st12" points="721.03,148.86 709.59,168.39 723.85,189.19 751.5,148.86 "/>
<polygon class="st12" points="723.96,203.2 723.85,203.36 707.87,226.66 722.21,247.43 754.51,247.43 "/>
</svg>
